<svg width="668" height="12" viewBox="0 0 668 12" fill="none" xmlns="http://www.w3.org/2000/svg">
<path d="M430.565 12.001C404.81 12.001 384.128 10.3953 362.047 8.01649C342.556 5.91273 318.445 5.03555 290.345 5.41467C278.237 5.57822 266.619 6.27701 254.301 7.01295C246.602 7.47384 238.624 7.94958 230.47 8.29154C205.624 9.32483 181.444 9.71139 152.189 9.55529C130.003 9.43635 114.01 8.02392 97.0384 6.52974C90.8795 5.98707 84.5105 5.42213 77.7217 4.92406C55.3956 3.26633 33.8394 4.53747 11.3734 6.18777C6.92913 6.51485 2.06482 6.01679 0.490091 5.0727C-1.08464 4.12118 1.25996 3.07305 5.73918 2.73854C29.5 0.991601 55.8506 -0.562065 83.3559 1.47479C90.5996 2.01002 97.1783 2.59729 103.582 3.15482C119.679 4.57467 133.572 5.80121 152.574 5.90528C180.534 6.06139 203.525 5.68971 227.111 4.70846C234.564 4.39624 241.843 3.95764 249.577 3.49675C262.21 2.7385 275.297 1.95799 289.19 1.76471C320.369 1.34842 347.455 2.35196 369.746 4.7605C393.332 7.31028 415.028 8.87136 444.213 8.18745C466.294 7.67452 488.655 5.77891 510.246 3.95764C519.17 3.20683 528.373 2.42631 537.402 1.75727C557.593 0.263086 574.81 -0.242433 593.217 0.106954C608.054 0.389437 621.877 1.36328 635.28 2.30736C644.238 2.93923 652.847 3.54138 661.49 3.9428C665.689 4.13608 668.489 4.97608 667.929 5.883L667.824 6.04652C667.159 7.04265 662.715 7.72659 658.096 7.51844C648.402 7.07985 639.024 6.41822 629.891 5.77892C616.873 4.85713 604.555 3.99483 591.712 3.74952C575.65 3.44473 561.093 3.8833 543.036 5.21395C534.357 5.85325 525.714 6.58176 516.58 7.35487C493.904 9.27279 470.458 11.2502 446.068 11.8226C440.784 11.9415 435.569 12.001 430.565 12.001Z" fill="#E0E3F0"/>
</svg>
